<svg xmlns="http://www.w3.org/2000/svg" viewBox="0 0 200 152" role="img" aria-label="Toc Toc Who?"><path d="M122.13 34.47 L122.09 34.35 L122.02 34.24 L121.93 34.14 L121.81 34.06 L121.66 33.98 L121.50 33.92 L121.31 33.86 L121.10 33.81 L120.88 33.77 L120.63 33.75 L120.38 33.72 L120.11 33.71 L119.84 33.70 L119.55 33.70 L119.27 33.70 L118.98 33.71 L118.69 33.71 L118.40 33.72 L118.12 33.73 L117.84 33.75 L117.57 33.76 L117.31 33.76 L117.06 33.77 L116.81 33.77 L116.58 33.77 L116.37 33.76 L116.16 33.76 L115.97 33.74 L115.79 33.72 L115.62 33.70 L115.47 33.67 L115.33 33.63 L115.20 33.59 L115.08 33.55 L114.97 33.50 L114.86 33.45 L114.77 33.39 L114.69 33.33 L114.61 33.26 L114.54 33.19 L114.47 33.12 L114.41 33.05 L114.35 32.97 L114.30 32.89 L114.25 32.81 L114.20 32.73 L114.15 32.65 L114.11 32.56 L114.06 32.48 L114.02 32.39 L113.98 32.31 L113.93 32.22 L113.89 32.13 L113.85 32.05 L113.80 31.96 L113.76 31.88 L113.72 31.79 L113.67 31.70 L113.63 31.62 L113.59 31.53 L113.54 31.45 L113.50 31.36 L113.45 31.28 L113.40 31.19 L113.36 31.10 L113.31 31.02 L113.26 30.94 L113.22 30.85 L113.17 30.77 L113.12 30.68 L113.07 30.60 L113.02 30.51 L112.97 30.43 L112.92 30.35 L112.87 30.26 L112.82 30.18 L112.77 30.10 L112.72 30.01 L112.66 29.93 L112.61 29.85 L112.56 29.77 L112.50 29.68 L112.45 29.60 L112.40 29.52 L112.34 29.44 L112.29 29.36 L112.23 29.27 L112.18 29.19 L112.12 29.11 L112.07 29.03 L112.02 28.94 L111.96 28.86 L111.91 28.77 L111.86 28.69 L111.81 28.60 L111.76 28.51 L111.71 28.42 L111.67 28.32 L111.63 28.22 L111.59 28.12 L111.56 28.01 L111.53 27.89 L111.51 27.77 L111.50 27.64 L111.49 27.51 L111.48 27.36 L111.49 27.21 L111.50 27.04 L111.52 26.87 L111.55 26.68 L111.58 26.48 L111.63 26.27 L111.68 26.05 L111.75 25.81 L111.82 25.57 L111.89 25.31 L111.98 25.04 L112.07 24.76 L112.16 24.46 L112.26 24.16 L112.36 23.85 L112.47 23.54 L112.57 23.22 L112.68 22.89 L112.78 22.57 L112.88 22.24 L112.97 21.92 L113.05 21.60 L113.13 21.29 L113.19 20.99 L113.25 20.70 L113.29 20.43 L113.31 20.17 L113.33 19.92 L113.32 19.70 L113.30 19.50 L113.26 19.32 L113.20 19.17 L113.13 19.04 L113.04 18.93 L112.93 18.85 L112.80 18.80 L112.66 18.78 L112.49 18.78 L112.32 18.80 L112.13 18.85 L111.93 18.92 L111.71 19.01 L111.49 19.12 L111.26 19.25 L111.02 19.40 L110.77 19.56 L110.52 19.73 L110.27 19.91 L110.02 20.09 L109.77 20.28 L109.52 20.48 L109.27 20.67 L109.03 20.86 L108.79 21.05 L108.56 21.23 L108.33 21.40 L108.11 21.57 L107.90 21.73 L107.70 21.87 L107.50 22.01 L107.32 22.13 L107.14 22.24 L106.97 22.34 L106.80 22.43 L106.65 22.50 L106.50 22.56 L106.36 22.61 L106.22 22.65 L106.09 22.67 L105.97 22.69 L105.85 22.70 L105.74 22.70 L105.63 22.69 L105.52 22.68 L105.41 22.65 L105.31 22.63 L105.21 22.60 L105.12 22.56 L105.02 22.52 L104.92 22.48 L104.83 22.44 L104.73 22.40 L104.64 22.35 L104.55 22.30 L104.45 22.25 L104.36 22.21 L104.27 22.16 L104.18 22.11 L104.08 22.06 L103.99 22.01 L103.90 21.96 L103.80 21.92 L103.71 21.87 L103.61 21.82 L103.52 21.77 L103.42 21.73 L103.33 21.68 L103.23 21.64 L103.14 21.59 L103.04 21.55 L102.95 21.50 L102.85 21.46 L102.75 21.41 L102.66 21.37 L102.56 21.33 L102.46 21.28 L102.36 21.24 L102.27 21.20 L102.17 21.16 L102.07 21.12 L101.97 21.08 L101.87 21.04 L101.77 21.00 L101.67 20.96 L101.57 20.92 L101.47 20.88 L101.37 20.84 L101.27 20.81 L101.17 20.77 L101.07 20.73 L100.97 20.69 L100.87 20.66 L100.77 20.62 L100.67 20.58 L100.57 20.54 L100.46 20.50 L100.36 20.46 L100.26 20.42 L100.16 20.37 L100.06 20.32 L99.96 20.27 L99.86 20.21 L99.76 20.15 L99.66 20.08 L99.56 20.01 L99.47 19.92 L99.37 19.83 L99.27 19.73 L99.18 19.61 L99.08 19.49 L98.99 19.35 L98.89 19.19 L98.80 19.03 L98.70 18.84 L98.61 18.65 L98.51 18.43 L98.42 18.20 L98.32 17.95 L98.22 17.69 L98.13 17.41 L98.03 17.12 L97.93 16.81 L97.82 16.49 L97.72 16.16 L97.61 15.82 L97.50 15.48 L97.39 15.13 L97.27 14.78 L97.15 14.42 L97.03 14.07 L96.90 13.73 L96.77 13.40 L96.64 13.07 L96.50 12.77 L96.37 12.48 L96.23 12.21 L96.08 11.96 L95.94 11.74 L95.79 11.54 L95.64 11.38 L95.49 11.25 L95.34 11.15 L95.19 11.08 L95.05 11.05 L94.90 11.05 L94.75 11.09 L94.61 11.15 L94.47 11.26 L94.33 11.39 L94.19 11.56 L94.06 11.75 L93.93 11.97 L93.80 12.21 L93.68 12.47 L93.56 12.75 L93.45 13.05 L93.34 13.36 L93.23 13.68 L93.13 14.01 L93.03 14.34 L92.93 14.67 L92.83 15.00 L92.74 15.32 L92.65 15.64 L92.56 15.95 L92.48 16.25 L92.39 16.54 L92.30 16.81 L92.22 17.07 L92.13 17.31 L92.05 17.54 L91.96 17.76 L91.87 17.95 L91.78 18.13 L91.69 18.30 L91.60 18.44 L91.51 18.58 L91.41 18.70 L91.31 18.81 L91.22 18.90 L91.12 18.98 L91.02 19.06 L90.91 19.12 L90.81 19.18 L90.70 19.22 L90.60 19.27 L90.49 19.30 L90.38 19.34 L90.27 19.36 L90.16 19.39 L90.05 19.41 L89.94 19.43 L89.82 19.45 L89.71 19.47 L89.60 19.49 L89.49 19.50 L89.37 19.52 L89.26 19.54 L89.15 19.55 L89.03 19.57 L88.92 19.59 L88.80 19.61 L88.69 19.63 L88.58 19.64 L88.46 19.66 L88.35 19.68 L88.24 19.70 L88.12 19.72 L88.01 19.75 L87.90 19.77 L87.78 19.79 L87.67 19.81 L87.56 19.84 L87.44 19.86 L87.33 19.88 L87.22 19.91 L87.10 19.94 L86.99 19.96 L86.88 19.99 L86.76 20.02 L86.65 20.04 L86.54 20.07 L86.42 20.10 L86.31 20.13 L86.20 20.16 L86.08 20.19 L85.97 20.22 L85.86 20.25 L85.75 20.28 L85.63 20.31 L85.52 20.35 L85.41 20.38 L85.29 20.41 L85.18 20.44 L85.07 20.47 L84.95 20.50 L84.84 20.53 L84.72 20.55 L84.60 20.58 L84.48 20.60 L84.36 20.62 L84.23 20.63 L84.11 20.64 L83.97 20.64 L83.84 20.64 L83.70 20.63 L83.55 20.61 L83.40 20.58 L83.24 20.54 L83.08 20.49 L82.90 20.43 L82.72 20.35 L82.53 20.27 L82.33 20.17 L82.12 20.05 L81.90 19.92 L81.67 19.78 L81.42 19.62 L81.17 19.45 L80.90 19.27 L80.63 19.08 L80.34 18.87 L80.05 18.65 L79.74 18.43 L79.43 18.20 L79.11 17.97 L78.78 17.73 L78.46 17.49 L78.12 17.26 L77.79 17.03 L77.46 16.81 L77.13 16.59 L76.81 16.39 L76.49 16.21 L76.18 16.04 L75.88 15.89 L75.60 15.77 L75.33 15.66 L75.08 15.59 L74.84 15.54 L74.62 15.52 L74.43 15.52 L74.25 15.56 L74.10 15.63 L73.97 15.72 L73.87 15.85 L73.78 16.00 L73.72 16.18 L73.69 16.39 L73.67 16.62 L73.68 16.88 L73.70 17.16 L73.75 17.45 L73.81 17.76 L73.89 18.09 L73.97 18.42 L74.08 18.77 L74.19 19.12 L74.30 19.47 L74.43 19.83 L74.55 20.18 L74.68 20.53 L74.81 20.88 L74.93 21.22 L75.05 21.55 L75.17 21.87 L75.28 22.18 L75.38 22.48 L75.47 22.76 L75.55 23.03 L75.62 23.29 L75.68 23.53 L75.73 23.76 L75.76 23.98 L75.79 24.18 L75.80 24.37 L75.81 24.55 L75.80 24.71 L75.78 24.87 L75.76 25.02 L75.72 25.16 L75.68 25.28 L75.63 25.41 L75.57 25.52 L75.51 25.63 L75.44 25.74 L75.37 25.84 L75.30 25.94 L75.22 26.03 L75.14 26.13 L75.05 26.22 L74.97 26.31 L74.88 26.40 L74.79 26.49 L74.70 26.57 L74.62 26.66 L74.53 26.75 L74.44 26.84 L74.35 26.92 L74.26 27.01 L74.17 27.10 L74.08 27.19 L73.99 27.28 L73.90 27.37 L73.82 27.46 L73.73 27.55 L73.64 27.64 L73.55 27.73 L73.47 27.82 L73.38 27.91 L73.30 28.01 L73.21 28.10 L73.12 28.19 L73.04 28.29 L72.96 28.38 L72.87 28.48 L72.79 28.57 L72.70 28.67 L72.62 28.76 L72.54 28.86 L72.46 28.96 L72.38 29.05 L72.29 29.15 L72.21 29.25 L72.13 29.35 L72.05 29.45 L71.97 29.55 L71.89 29.65 L71.81 29.75 L71.73 29.85 L71.65 29.95 L71.57 30.05 L71.49 30.15 L71.41 30.25 L71.33 30.35 L71.25 30.45 L71.17 30.55 L71.08 30.65 L70.99 30.75 L70.90 30.84 L70.80 30.94 L70.70 31.03 L70.59 31.12 L70.48 31.20 L70.36 31.29 L70.23 31.37 L70.08 31.44 L69.93 31.52 L69.77 31.58 L69.59 31.64 L69.40 31.70 L69.19 31.75 L68.96 31.80 L68.72 31.84 L68.46 31.87 L68.18 31.90 L67.89 31.92 L67.57 31.94 L67.24 31.95 L66.89 31.96 L66.52 31.97 L66.13 31.97 L65.73 31.97 L65.32 31.97 L64.90 31.96 L64.47 31.96 L64.03 31.96 L63.59 31.96 L63.14 31.97 L62.70 31.98 L62.27 31.99 L61.84 32.02 L61.42 32.05 L61.03 32.09 L60.65 32.14 L60.29 32.20 L59.96 32.27 L59.65 32.35 L59.38 32.45 L59.14 32.56 L58.93 32.68 L58.76 32.81 L58.63 32.95 L58.54 33.11 L58.49 33.28 L58.48 33.46 L58.50 33.64 L58.57 33.84 L58.67 34.05 L58.80 34.26 L58.97 34.49 L59.17 34.71 L59.40 34.95 L59.65 35.18 L59.93 35.42 L60.22 35.66 L60.53 35.90 L60.86 36.14 L61.19 36.37 L61.52 36.61 L61.86 36.84 L62.20 37.07 L62.54 37.29 L62.86 37.51 L63.18 37.73 L63.49 37.94 L63.78 38.14 L64.06 38.34 L64.32 38.53 L64.57 38.72 L64.80 38.90 L65.01 39.08 L65.20 39.25 L65.37 39.42 L65.52 39.58 L65.65 39.74 L65.77 39.89 L65.87 40.04 L65.96 40.19 L66.03 40.34 L66.09 40.48 L66.13 40.62 L66.17 40.76 L66.19 40.90 L66.21 41.04 L66.22 41.18 L66.22 41.31 L66.21 41.45 L66.21 41.58 L66.19 41.72 L66.18 41.85 L66.16 41.99 L66.14 42.12 L66.12 42.25 L66.10 42.39 L66.08 42.52 L66.05 42.66 L66.03 42.79 L66.01 42.93 L65.99 43.06 L65.96 43.20 L65.94 43.33 L65.92 43.47 L65.90 43.60 L65.88 43.74 L65.86 43.87 L65.84 44.01 L65.82 44.15 L65.81 44.28 L65.79 44.42 L65.77 44.56 L65.76 44.69 L65.74 44.83 L65.73 44.97 L65.71 45.11 L65.70 45.24 L65.69 45.38 L65.68 45.52 L65.66 45.66 L65.65 45.80 L65.64 45.93 L65.63 46.07 L65.62 46.21 L65.62 46.35 L65.61 46.49 L65.60 46.63 L65.59 46.77 L65.59 46.91 L65.58 47.05 L65.58 47.18 L65.57 47.32 L65.56 47.46 L65.56 47.60 L65.55 47.74 L65.55 47.89 L65.54 48.03 L65.53 48.17 L65.51 48.31 L65.50 48.45 L65.48 48.60 L65.45 48.74 L65.42 48.89 L65.38 49.04 L65.34 49.19 L65.28 49.34 L65.22 49.49 L65.14 49.65 L65.06 49.81 L64.95 49.98 L64.84 50.15 L64.70 50.32 L64.55 50.50 L64.38 50.68 L64.19 50.87 L63.99 51.07 L63.76 51.27 L63.51 51.48 L63.24 51.70 L62.96 51.93 L62.65 52.16 L62.33 52.40 L61.99 52.65 L61.64 52.91 L61.27 53.17 L60.90 53.44 L60.51 53.71 L60.13 53.99 L59.74 54.28 L59.35 54.57 L58.97 54.86 L58.59 55.15 L58.23 55.45 L57.89 55.74 L57.56 56.03 L57.26 56.32 L56.98 56.60 L56.73 56.88 L56.52 57.15 L56.33 57.41 L56.19 57.66 L56.09 57.89 L56.02 58.12 L56.00 58.33 L56.02 58.53 L56.08 58.71 L56.18 58.88 L56.33 59.03 L56.51 59.16 L56.73 59.28 L56.99 59.38 L57.28 59.47 L57.61 59.54 L57.96 59.60 L58.33 59.64 L58.73 59.68 L59.14 59.70 L59.57 59.71 L60.01 59.72 L60.45 59.71 L60.90 59.70 L61.35 59.69 L61.79 59.68 L62.23 59.66 L62.66 59.64 L63.08 59.63 L63.48 59.62 L63.88 59.61 L64.25 59.60 L64.60 59.61 L64.94 59.61 L65.26 59.63 L65.56 59.65 L65.83 59.68 L66.09 59.72 L66.33 59.76 L66.55 59.82 L66.76 59.88 L66.94 59.95 L67.11 60.02 L67.27 60.11 L67.41 60.20 L67.54 60.29 L67.66 60.40 L67.78 60.50 L67.88 60.61 L67.97 60.73 L68.06 60.85 L68.14 60.97 L68.22 61.09 L68.30 61.22 L68.37 61.35 L68.44 61.48 L68.51 61.61 L68.58 61.74 L68.65 61.87 L68.71 62.01 L68.78 62.14 L68.84 62.27 L68.91 62.41 L68.98 62.54 L69.05 62.67 L69.11 62.81 L69.18 62.94 L69.25 63.07 L69.32 63.21 L69.39 63.34 L69.46 63.47 L69.53 63.60 L69.60 63.73 L69.68 63.87 L69.75 64.00 L69.82 64.13 L69.90 64.26 L69.97 64.39 L70.05 64.52 L70.13 64.65 L70.20 64.78 L70.28 64.91 L70.36 65.04 L70.44 65.17 L70.52 65.30 L70.60 65.43 L70.68 65.55 L70.76 65.68 L70.84 65.81 L70.93 65.94 L71.01 66.06 L71.09 66.19 L71.18 66.32 L71.26 66.44 L71.35 66.57 L71.43 66.70 L71.52 66.83 L71.60 66.95 L71.68 67.08 L71.77 67.21 L71.85 67.34 L71.93 67.48 L72.01 67.62 L72.08 67.76 L72.15 67.90 L72.22 68.05 L72.28 68.20 L72.34 68.36 L72.39 68.53 L72.43 68.71 L72.46 68.90 L72.49 69.10 L72.50 69.31 L72.51 69.53 L72.50 69.77 L72.48 70.03 L72.45 70.30 L72.41 70.59 L72.35 70.90 L72.28 71.22 L72.20 71.57 L72.10 71.93 L71.99 72.31 L71.87 72.71 L71.74 73.13 L71.60 73.57 L71.46 74.02 L71.30 74.49 L71.14 74.97 L70.98 75.46 L70.82 75.95 L70.66 76.46 L70.50 76.96 L70.35 77.46 L70.21 77.96 L70.08 78.45 L69.96 78.94 L69.86 79.40 L69.78 79.85 L69.71 80.28 L69.67 80.68 L69.65 81.06 L69.66 81.40 L69.69 81.71 L69.75 81.99 L69.84 82.23 L69.96 82.43 L70.10 82.59 L70.27 82.71 L70.47 82.79 L70.69 82.83 L70.94 82.83 L71.21 82.80 L71.51 82.72 L71.82 82.61 L72.15 82.47 L72.50 82.29 L72.86 82.09 L73.23 81.87 L73.61 81.62 L73.99 81.36 L74.38 81.08 L74.77 80.80 L75.16 80.50 L75.55 80.20 L75.93 79.90 L76.31 79.61 L76.68 79.32 L77.04 79.03 L77.39 78.76 L77.73 78.51 L78.06 78.26 L78.37 78.04 L78.67 77.83 L78.96 77.64 L79.24 77.46 L79.51 77.31 L79.76 77.18 L80.00 77.07 L80.23 76.97 L80.45 76.90 L80.66 76.84 L80.86 76.80 L81.05 76.77 L81.23 76.76 L81.41 76.76 L81.58 76.77 L81.75 76.79 L81.91 76.83 L82.07 76.87 L82.22 76.91 L82.37 76.97 L82.52 77.03 L82.67 77.09 L82.82 77.16 L82.96 77.23 L83.11 77.30 L83.25 77.37 L83.40 77.45 L83.54 77.52 L83.68 77.60 L83.83 77.67 L83.97 77.75 L84.12 77.82 L84.26 77.90 L84.41 77.97 L84.55 78.04 L84.70 78.12 L84.85 78.19 L84.99 78.26 L85.14 78.33 L85.29 78.40 L85.44 78.47 L85.58 78.54 L85.73 78.61 L85.88 78.68 L86.03 78.75 L86.18 78.82 L86.33 78.88 L86.48 78.95 L86.64 79.01 L86.79 79.08 L86.94 79.14 L87.09 79.20 L87.25 79.27 L87.40 79.33 L87.55 79.39 L87.71 79.45 L87.86 79.51 L88.02 79.57 L88.17 79.63 L88.33 79.69 L88.48 79.75 L88.64 79.80 L88.79 79.86 L88.95 79.92 L89.11 79.98 L89.26 80.04 L89.42 80.10 L89.58 80.16 L89.73 80.22 L89.89 80.29 L90.05 80.36 L90.20 80.43 L90.36 80.51 L90.51 80.60 L90.67 80.69 L90.82 80.79 L90.97 80.90 L91.13 81.03 L91.28 81.16 L91.43 81.32 L91.58 81.48 L91.73 81.66 L91.88 81.86 L92.03 82.08 L92.18 82.32 L92.32 82.58 L92.47 82.87 L92.62 83.17 L92.77 83.49 L92.92 83.84 L93.07 84.21 L93.23 84.59 L93.38 85.00 L93.54 85.42 L93.70 85.86 L93.87 86.31 L94.03 86.78 L94.20 87.25 L94.38 87.72 L94.56 88.20 L94.74 88.67 L94.93 89.13 L95.12 89.59 L95.32 90.03 L95.52 90.45 L95.73 90.86 L95.93 91.23 L96.15 91.58 L96.36 91.89 L96.58 92.17 L96.80 92.41 L97.02 92.60 L97.24 92.76 L97.46 92.87 L97.69 92.93 L97.91 92.95 L98.13 92.93 L98.34 92.85 L98.56 92.74 L98.77 92.58 L98.98 92.38 L99.18 92.14 L99.38 91.87 L99.57 91.56 L99.76 91.23 L99.95 90.86 L100.13 90.48 L100.30 90.08 L100.47 89.66 L100.64 89.23 L100.80 88.80 L100.96 88.36 L101.11 87.92 L101.26 87.49 L101.41 87.07 L101.55 86.65 L101.69 86.25 L101.83 85.86 L101.98 85.49 L102.12 85.14 L102.25 84.81 L102.39 84.50 L102.54 84.21 L102.68 83.94 L102.82 83.69 L102.97 83.46 L103.11 83.25 L103.26 83.07 L103.41 82.90 L103.56 82.75 L103.72 82.61 L103.88 82.50 L104.03 82.39 L104.19 82.30 L104.36 82.22 L104.52 82.15 L104.69 82.09 L104.86 82.03 L105.03 81.98 L105.20 81.94 L105.37 81.90 L105.54 81.87 L105.71 81.84 L105.89 81.81 L106.06 81.78 L106.23 81.76 L106.41 81.73 L106.59 81.70 L106.76 81.68 L106.94 81.65 L107.11 81.63 L107.29 81.60 L107.46 81.57 L107.64 81.55 L107.82 81.52 L107.99 81.49 L108.17 81.46 L108.34 81.43 L108.52 81.40 L108.70 81.37 L108.87 81.33 L109.05 81.30 L109.22 81.26 L109.40 81.23 L109.58 81.19 L109.75 81.15 L109.93 81.12 L110.10 81.08 L110.28 81.04 L110.45 81.00 L110.63 80.96 L110.80 80.91 L110.98 80.87 L111.15 80.83 L111.33 80.78 L111.50 80.74 L111.68 80.69 L111.85 80.65 L112.03 80.60 L112.20 80.55 L112.38 80.50 L112.55 80.45 L112.73 80.40 L112.90 80.35 L113.08 80.30 L113.25 80.25 L113.43 80.20 L113.61 80.15 L113.78 80.10 L113.96 80.06 L114.14 80.01 L114.32 79.97 L114.51 79.93 L114.69 79.90 L114.88 79.87 L115.07 79.84 L115.27 79.83 L115.47 79.81 L115.68 79.81 L115.89 79.82 L116.11 79.83 L116.33 79.85 L116.56 79.89 L116.80 79.94 L117.05 79.99 L117.31 80.06 L117.58 80.15 L117.85 80.24 L118.14 80.35 L118.44 80.47 L118.74 80.60 L119.06 80.74 L119.38 80.89 L119.71 81.05 L120.06 81.22 L120.40 81.39 L120.76 81.56 L121.12 81.74 L121.48 81.92 L121.84 82.10 L122.21 82.27 L122.58 82.44 L122.94 82.59 L123.30 82.74 L123.65 82.87 L124.00 82.99 L124.33 83.09 L124.66 83.16 L124.97 83.22 L125.27 83.26 L125.55 83.27 L125.81 83.25 L126.06 83.21 L126.29 83.14 L126.49 83.05 L126.68 82.92 L126.85 82.78 L126.99 82.60 L127.12 82.40 L127.22 82.18 L127.30 81.93 L127.37 81.67 L127.42 81.38 L127.45 81.08 L127.47 80.76 L127.47 80.43 L127.46 80.09 L127.44 79.75 L127.42 79.39 L127.38 79.03 L127.34 78.67 L127.30 78.31 L127.26 77.96 L127.21 77.60 L127.17 77.26 L127.13 76.92 L127.10 76.58 L127.07 76.26 L127.05 75.95 L127.03 75.65 L127.03 75.36 L127.03 75.08 L127.04 74.82 L127.07 74.56 L127.10 74.32 L127.14 74.09 L127.19 73.87 L127.25 73.66 L127.32 73.46 L127.40 73.27 L127.48 73.08 L127.58 72.91 L127.68 72.74 L127.78 72.58 L127.90 72.42 L128.01 72.27 L128.13 72.12 L128.26 71.98 L128.39 71.83 L128.52 71.69 L128.65 71.56 L128.79 71.42 L128.92 71.29 L129.06 71.15 L129.20 71.02 L129.34 70.88 L129.48 70.75 L129.62 70.62 L129.76 70.48 L129.90 70.35 L130.04 70.21 L130.18 70.07 L130.31 69.94 L130.45 69.80 L130.59 69.66 L130.73 69.52 L130.86 69.38 L131.00 69.24 L131.13 69.10 L131.27 68.96 L131.40 68.82 L131.54 68.68 L131.67 68.53 L131.80 68.39 L131.93 68.24 L132.06 68.10 L132.19 67.95 L132.32 67.81 L132.45 67.66 L132.58 67.51 L132.71 67.36 L132.84 67.21 L132.97 67.06 L133.09 66.91 L133.22 66.76 L133.34 66.61 L133.47 66.45 L133.59 66.30 L133.72 66.15 L133.84 65.99 L133.96 65.84 L134.09 65.68 L134.21 65.52 L134.33 65.37 L134.45 65.21 L134.57 65.05 L134.69 64.90 L134.81 64.74 L134.94 64.58 L135.06 64.42 L135.18 64.26 L135.31 64.11 L135.44 63.95 L135.57 63.79 L135.70 63.64 L135.84 63.48 L135.97 63.33 L136.12 63.18 L136.27 63.03 L136.42 62.88 L136.58 62.74 L136.75 62.59 L136.92 62.45 L137.10 62.31 L137.29 62.18 L137.48 62.04 L137.69 61.91 L137.90 61.78 L138.12 61.65 L138.35 61.53 L138.58 61.40 L138.82 61.28 L139.07 61.15 L139.33 61.03 L139.59 60.91 L139.85 60.79 L140.12 60.67 L140.39 60.54 L140.65 60.41 L140.92 60.29 L141.19 60.15 L141.45 60.02 L141.70 59.88 L141.95 59.74 L142.19 59.59 L142.42 59.44 L142.64 59.28 L142.84 59.11 L143.03 58.94 L143.21 58.77 L143.37 58.58 L143.51 58.40 L143.63 58.20 L143.74 58.00 L143.83 57.79 L143.90 57.58 L143.95 57.37 L143.98 57.14 L144.00 56.92 L144.00 56.69 L143.98 56.46 L143.96 56.22 L143.91 55.98 L143.86 55.74 L143.79 55.50 L143.72 55.25 L143.63 55.01 L143.55 54.76 L143.45 54.52 L143.36 54.27 L143.26 54.03 L143.16 53.79 L143.06 53.55 L142.96 53.31 L142.87 53.07 L142.78 52.84 L142.70 52.61 L142.62 52.38 L142.55 52.15 L142.49 51.92 L142.43 51.70 L142.38 51.48 L142.34 51.26 L142.31 51.04 L142.28 50.83 L142.26 50.61 L142.25 50.40 L142.24 50.19 L142.24 49.98 L142.25 49.77 L142.26 49.56 L142.28 49.35 L142.30 49.15 L142.33 48.94 L142.35 48.73 L142.39 48.53 L142.42 48.32 L142.45 48.11 L142.49 47.91 L142.53 47.70 L142.57 47.50 L142.61 47.29 L142.65 47.08 L142.69 46.88 L142.73 46.67 L142.77 46.46 L142.81 46.25 L142.84 46.05 L142.88 45.84 L142.92 45.63 L142.95 45.42 L142.99 45.21 L143.02 45.00 L143.06 44.79 L143.09 44.58 L143.12 44.37 L143.15 44.16 L143.18 43.95 L143.21 43.74 L143.24 43.53 L143.27 43.32 L143.29 43.11 L143.32 42.89 L143.34 42.68 L143.37 42.47 L143.39 42.26 L143.41 42.04 L143.43 41.83 L143.45 41.62 L143.47 41.40 L143.49 41.19 L143.51 40.98 L143.52 40.76 L143.54 40.55 L143.55 40.33 L143.56 40.12 L143.58 39.90 L143.59 39.69 L143.60 39.47 L143.61 39.26 L143.62 39.04 L143.62 38.82 L143.63 38.61 L143.64 38.39 L143.64 38.18 L143.64 37.96 L143.65 37.74 L143.65 37.52 L143.65 37.31 L143.65 37.09 L143.66 36.87 L143.66 36.65 L143.66 36.44 L143.66 36.22 L143.65 36.00 L143.65 35.78 L143.65 35.56 L143.65 35.34 L143.65 35.12 L143.65 34.90 L143.65 34.68 L143.65 34.46 L143.65 34.24 L143.65 34.02 L143.65 33.79 L143.65 33.57 L143.64 33.35 L143.64 33.13 L143.64 32.90 L143.63 32.68 L143.63 32.45 L143.62 32.23 L143.61 32.01 L143.60 31.78 L143.59 31.56 L143.58 31.34 L143.56 31.11 L143.54 30.89 L143.51 30.67 L143.49 30.45 L143.45 30.23 L143.42 30.01 L143.38 29.79 L143.34 29.57 L143.29 29.35 L143.24 29.14 L143.19 28.92 L143.13 28.71 L143.07 28.49 L143.00 28.28 L142.93 28.07 L142.86 27.86 L142.79 27.65 L142.71 27.44 L142.64 27.24 L142.56 27.03 L126.52 34.57Z" fill="#1e5f7a"/><path d="M99.37 46.40 L99.45 46.32 L99.52 46.25 L99.59 46.17 L99.66 46.09 L99.73 46.01 L99.80 45.92 L99.86 45.84 L99.92 45.75 L99.98 45.66 L100.04 45.56 L100.10 45.47 L100.15 45.37 L100.20 45.28 L100.25 45.18 L100.30 45.08 L100.34 44.97 L100.38 44.87 L100.42 44.76 L100.46 44.66 L100.49 44.55 L100.52 44.44 L100.55 44.33 L100.57 44.22 L100.60 44.11 L100.62 43.99 L100.63 43.88 L100.65 43.76 L100.66 43.65 L100.66 43.53 L100.67 43.41 L100.67 43.30 L100.67 43.18 L100.67 43.06 L100.66 42.94 L100.65 42.82 L100.63 42.70 L100.62 42.58 L100.60 42.47 L100.58 42.35 L100.55 42.23 L100.52 42.11 L100.49 41.99 L100.45 41.87 L100.41 41.76 L100.37 41.64 L100.33 41.53 L100.28 41.41 L100.23 41.30 L100.17 41.18 L100.12 41.07 L100.06 40.96 L99.99 40.85 L99.92 40.74 L99.86 40.64 L99.78 40.53 L99.71 40.43 L99.63 40.32 L99.55 40.22 L99.46 40.12 L99.38 40.03 L99.29 39.93 L99.19 39.84 L99.10 39.75 L99.00 39.66 L98.90 39.57 L98.79 39.49 L98.69 39.41 L98.58 39.33 L98.47 39.25 L98.36 39.18 L98.24 39.11 L98.12 39.04 L98.00 38.97 L97.88 38.91 L97.76 38.85 L97.63 38.79 L97.50 38.74 L97.37 38.69 L97.24 38.64 L97.11 38.59 L96.98 38.55 L96.84 38.52 L96.70 38.48 L96.56 38.45 L96.42 38.42 L96.28 38.40 L96.14 38.38 L96.00 38.36 L95.85 38.35 L95.71 38.34 L95.56 38.33 L95.41 38.33 L95.27 38.33 L95.12 38.34 L94.97 38.35 L94.83 38.36 L94.68 38.38 L94.53 38.40 L94.38 38.43 L94.23 38.46 L94.09 38.49 L93.94 38.53 L93.79 38.57 L93.65 38.61 L93.50 38.66 L93.36 38.71 L93.21 38.77 L93.07 38.83 L92.93 38.89 L92.79 38.96 L92.65 39.03 L92.51 39.11 L92.37 39.19 L92.24 39.27 L92.11 39.36 L91.97 39.45 L91.85 39.55 L91.72 39.64 L91.59 39.75 L91.47 39.85 L91.35 39.96 L91.23 40.07 L91.12 40.19 L91.00 40.31 L90.89 40.43 L90.79 40.56 L90.68 40.69 L90.58 40.82 L90.48 40.95 L90.39 41.09 L90.30 41.23 L90.21 41.38 L90.12 41.52 L90.04 41.67 L89.96 41.83 L89.89 41.98 L89.82 42.14 L89.75 42.30 L89.69 42.46 L89.63 42.62 L89.58 42.79 L89.53 42.96 L89.48 43.13 L89.44 43.30 L89.40 43.47 L89.37 43.64 L89.34 43.82 L89.31 44.00 L89.29 44.18 L89.28 44.36 L89.27 44.54 L89.26 44.72 L89.26 44.90 L89.26 45.08 L89.27 45.27 L89.28 45.45 L89.30 45.64 L89.32 45.82 L89.35 46.00 L89.38 46.19 L89.42 46.37 L89.46 46.56 L89.51 46.74 L89.56 46.92 L89.61 47.10 L89.67 47.28 L89.74 47.46 L89.81 47.64 L89.89 47.82 L89.97 48.00 L90.05 48.17 L90.14 48.34 L90.24 48.52 L90.34 48.68 L90.44 48.85 L90.55 49.02 L90.67 49.18 L90.79 49.34 L90.91 49.50 L91.04 49.65 L91.17 49.81 L91.31 49.95 L91.45 50.10 L91.59 50.24 L91.74 50.38 L91.89 50.52 L92.05 50.65 L92.21 50.78 L92.38 50.91 L92.55 51.03 L92.72 51.15 L92.90 51.26 L93.08 51.37 L93.26 51.48 L93.45 51.58 L93.63 51.67 L93.83 51.77 L94.02 51.85 L94.22 51.93 L94.42 52.01 L94.63 52.08 L94.83 52.15 L95.04 52.21 L95.26 52.27 L95.47 52.32 L95.68 52.37 L95.90 52.41 L96.12 52.44 L96.34 52.47 L96.57 52.50 L96.79 52.52 L97.01 52.53 L97.24 52.54 L97.47 52.54 L97.69 52.53 L97.92 52.52 L98.15 52.51 L98.38 52.48 L98.61 52.45 L98.84 52.42 L99.07 52.38 L99.30 52.33 L99.53 52.28 L99.75 52.22 L99.98 52.16 L100.21 52.08 L100.43 52.01 L100.66 51.92 L100.88 51.83 L101.10 51.74 L101.32 51.64 L101.54 51.53 L101.75 51.42 L101.96 51.30 L102.17 51.17 L102.38 51.04 L102.59 50.90 L102.79 50.76 L102.99 50.61 L103.18 50.46 L103.38 50.30 L103.57 50.13 L103.75 49.96 L103.93 49.79 L104.11 49.61 L104.28 49.42 L104.45 49.23 L104.62 49.03 L104.78 48.83 L104.93 48.62 L105.08 48.41 L105.23 48.20 L105.37 47.98 L105.51 47.75 L105.64 47.52 L105.76 47.29 L105.88 47.06 L105.99 46.81 L106.10 46.57 L106.20 46.32 L106.30 46.07 L106.39 45.82 L106.47 45.56 L106.55 45.30 L106.62 45.03 L106.68 44.77 L106.74 44.50 L106.79 44.23 L106.83 43.95 L106.87 43.68 L106.89 43.40 L106.92 43.12 L106.93 42.84 L106.94 42.56 L106.94 42.28 L106.93 41.99 L106.92 41.71 L106.90 41.43 L106.87 41.14 L106.83 40.85 L106.79 40.57 L106.73 40.28 L106.67 40.00 L106.61 39.71 L106.53 39.43 L106.45 39.15 L106.36 38.87 L106.26 38.59 L106.16 38.31 L106.05 38.03 L105.93 37.76 L105.80 37.49 L105.66 37.22 L105.52 36.95 L105.37 36.69 L105.22 36.42 L105.05 36.17 L104.88 35.91 L104.70 35.66 L104.52 35.41 L104.32 35.17 L104.12 34.93 L103.92 34.70 L103.70 34.47 L103.48 34.24 L103.26 34.02 L103.02 33.80 L102.78 33.59 L102.54 33.39 L102.29 33.19 L102.03 33.00 L101.77 32.81 L101.50 32.63 L101.22 32.46 L100.94 32.29 L100.66 32.13 L100.37 31.97 L100.07 31.83 L99.77 31.69 L99.47 31.55 L99.16 31.43 L98.84 31.31 L98.53 31.20 L98.20 31.10 L97.88 31.01 L97.55 30.92 L97.22 30.84 L96.88 30.77 L96.55 30.71 L96.21 30.66 L95.86 30.62 L95.52 30.58 L95.17 30.56 L94.82 30.54 L94.47 30.53 L94.12 30.53 L93.76 30.54 L93.41 30.56 L93.06 30.59 L92.70 30.63 L92.35 30.67 L91.99 30.73 L91.64 30.80 L91.28 30.87 L90.93 30.96 L90.57 31.05 L90.22 31.15 L89.87 31.27 L89.53 31.39 L89.18 31.52 L88.84 31.66 L88.49 31.81 L88.16 31.97 L87.82 32.14 L87.49 32.32 L87.16 32.51 L86.84 32.70 L86.51 32.91 L86.20 33.13 L85.89 33.35 L85.58 33.58 L85.28 33.82 L84.98 34.07 L84.69 34.33 L84.40 34.60 L84.12 34.87 L83.85 35.16 L83.58 35.45 L83.32 35.75 L83.07 36.05 L82.82 36.37 L82.58 36.69 L82.35 37.02 L82.13 37.35 L81.91 37.70 L81.71 38.05 L81.51 38.40 L81.32 38.76 L81.13 39.13 L80.96 39.51 L80.80 39.89 L80.64 40.27 L80.50 40.66 L80.36 41.06 L80.24 41.46 L80.12 41.87 L80.02 42.28 L79.92 42.69 L79.84 43.11 L79.76 43.53 L79.70 43.95 L79.65 44.38 L79.61 44.81 L79.57 45.24 L79.56 45.68 L79.55 46.11 L79.55 46.55 L79.56 46.99 L79.59 47.43 L79.63 47.87 L79.68 48.32 L79.74 48.76 L79.81 49.20 L79.89 49.64 L79.99 50.08 L80.09 50.52 L80.21 50.96 L80.34 51.40 L80.49 51.84 L80.64 52.27 L80.81 52.70 L80.98 53.13 L81.17 53.55 L81.37 53.97 L81.58 54.39 L81.81 54.80 L82.04 55.21 L82.29 55.61 L82.55 56.01 L82.82 56.40 L83.10 56.79 L83.39 57.17 L83.69 57.55 L84.00 57.92 L84.33 58.28 L84.66 58.63 L85.00 58.98 L85.36 59.32 L85.72 59.65 L86.09 59.97 L86.48 60.29 L86.87 60.59 L87.27 60.89 L87.68 61.17 L88.10 61.45 L88.53 61.72 L88.97 61.97 L89.41 62.22 L89.86 62.46 L90.32 62.68 L90.79 62.89 L91.26 63.10 L91.74 63.29 L92.23 63.47 L92.73 63.63 L93.23 63.79 L93.73 63.93 L94.24 64.06 L94.76 64.17 L95.28 64.28 L95.80 64.37 L96.33 64.44 L96.86 64.51 L97.40 64.56 L97.94 64.59 L98.48 64.62 L99.02 64.63 L99.57 64.62 L100.12 64.60 L100.67 64.57 L101.22 64.52 L101.77 64.45 L102.32 64.38 L102.87 64.29 L103.42 64.18 L103.97 64.06 L104.51 63.92 L105.06 63.77 L105.60 63.61 L106.14 63.43 L106.68 63.24 L107.22 63.03 L107.75 62.80 L108.28 62.57 L108.80 62.31 L109.32 62.05 L109.83 61.77 L110.34 61.47 L110.84 61.16 L111.33 60.84 L111.82 60.50 L112.30 60.15 L112.78 59.79 L113.24 59.41 L113.70 59.02 L114.15 58.62 L114.59 58.20 L115.02 57.77 L115.44 57.33 L115.85 56.87 L116.25 56.41 L116.64 55.93 L117.02 55.44 L117.38 54.94 L117.74 54.42 L118.08 53.90 L118.41 53.37 L118.73 52.82 L119.03 52.27" fill="none" stroke="#dcebf1" stroke-width="5" stroke-linecap="round"/><path d="M9.201479339599615 140.0V123.40001225471497H1.7841861486434993V118.90625H21.93296887874604V123.40001225471497H14.486378812789923V140.0Z M30.800247569341924 140.39761781692505Q28.34506813577704 140.39761781692505 26.471378568056473 139.34195993829434Q24.597689000335908 138.28630205966363 23.547776742561453 136.4112174360818Q22.497864484786994 134.5361328125 22.497864484786994 132.08408683538437Q22.497864484786994 129.63204085826874 23.547566864509072 127.76063949995738Q24.597269244231146 125.88923814164602 26.47058426035054 124.83565391236048Q28.34389927646994 123.78206968307495 30.798587918281562 123.78206968307495Q33.26694083213807 123.78206968307495 35.138867020607 124.83518987894058Q37.010793209075935 125.88831007480621 38.066566109657295 127.75860895915908Q39.122339010238655 129.62890784351194 39.122339010238655 132.0882772426216Q39.122339010238655 134.54764664173126 38.068887959198406 136.4190480000426Q37.01543690815816 138.29044935835398 35.13543195553248 139.3440335876395Q33.255427002906806 140.39761781692505 30.800247569341924 140.39761781692505ZM30.811532036858324 136.71187281608582Q32.19928932189942 136.71187281608582 33.000581383705146 135.46915745397786Q33.80187344551087 134.22644209186987 33.80187344551087 132.08984375Q33.80187344551087 129.95250046253204 32.99915109435965 128.7101575732231Q32.19642874320842 127.46781468391418 30.808671458167325 127.46781468391418Q29.420914173126228 127.46781468391418 28.619622111320503 128.7101575732231Q27.818330049514778 129.95250046253204 27.818330049514778 132.08984375Q27.818330049514778 134.23556625843048 28.621052400666002 135.47371953725815Q29.423774751817223 136.71187281608582 30.811532036858324 136.71187281608582Z M48.58806655406953 140.39761781692505Q45.981547689437875 140.39761781692505 44.08499614000321 139.38687562942505Q42.18844459056855 138.37613344192505 41.15985856056214 136.50583535432816Q40.131272530555734 134.63553726673126 40.131272530555734 132.07832992076874Q40.131272530555734 129.50960874557495 41.15410164594651 127.65082448720932Q42.17693076133729 125.79204022884369 44.06772539615632 124.78705495595932Q45.95852003097535 123.78206968307495 48.55352506637574 123.78206968307495Q50.379395937919625 123.78206968307495 51.99605987071992 124.4334128499031Q53.61272380352021 125.08475601673126 54.75590542554856 126.39322966337204Q55.89908704757691 127.70170331001282 56.26945719718934 129.67622935771942L51.47332236766816 130.6462824344635Q51.20133206844331 129.01934206485748 50.438679909706124 128.24357837438583Q49.67602775096894 127.46781468391418 48.53049740791322 127.46781468391418Q46.912057852745065 127.46781468391418 46.18189797401429 128.78710746765137Q45.45173809528352 130.10640025138855 45.45173809528352 132.1474128961563Q45.45173809528352 134.18004631996155 46.17614105939866 135.44595956802368Q46.9005440235138 136.71187281608582 48.54201123714448 136.71187281608582Q49.63835165500642 136.71187281608582 50.41095033884049 136.046002805233Q51.18354902267457 135.3801327943802 51.56229839324952 133.93216907978058L56.18259117603303 134.6928632259369Q55.9001116514206 136.2279361486435 55.146711325645455 137.3151159286499Q54.39331099987031 138.4022957086563 53.326506173610696 139.0787461400032Q52.25970134735108 139.7551965713501 51.03649601936341 140.07640719413757Q49.81329069137574 140.39761781692505 48.58806655406953 140.39761781692505Z M68.94132308959962 140.0V123.40001225471497H61.524029898643505V118.90625H81.67281262874604V123.40001225471497H74.22622256278993V140.0Z M90.54009131934193 140.39761781692505Q88.08491188577705 140.39761781692505 86.21122231805649 139.34195993829434Q84.33753275033591 138.28630205966363 83.28762049256144 136.4112174360818Q82.237708234787 134.5361328125 82.237708234787 132.08408683538437Q82.237708234787 129.63204085826874 83.28741061450907 127.76063949995738Q84.33711299423115 125.88923814164602 86.21042801035054 124.83565391236048Q88.08374302646993 123.78206968307495 90.53843166828156 123.78206968307495Q93.00678458213807 123.78206968307495 94.878710770607 124.83518987894058Q96.75063695907593 125.88831007480621 97.8064098596573 127.75860895915908Q98.86218276023865 129.62890784351194 98.86218276023865 132.0882772426216Q98.86218276023865 134.54764664173126 97.80873170919841 136.4190480000426Q96.75528065815816 138.29044935835398 94.87527570553249 139.3440335876395Q92.9952707529068 140.39761781692505 90.54009131934193 140.39761781692505ZM90.55137578685832 136.71187281608582Q91.93913307189942 136.71187281608582 92.74042513370514 135.46915745397786Q93.54171719551087 134.22644209186987 93.54171719551087 132.08984375Q93.54171719551087 129.95250046253204 92.73899484435964 128.7101575732231Q91.93627249320842 127.46781468391418 90.54851520816733 127.46781468391418Q89.16075792312623 127.46781468391418 88.3594658613205 128.7101575732231Q87.55817379951478 129.95250046253204 87.55817379951478 132.08984375Q87.55817379951478 134.23556625843048 88.36089615066601 135.47371953725815Q89.16361850181723 136.71187281608582 90.55137578685832 136.71187281608582Z M108.32791030406952 140.39761781692505Q105.72139143943787 140.39761781692505 103.8248398900032 139.38687562942505Q101.92828834056854 138.37613344192505 100.89970231056213 136.50583535432816Q99.87111628055573 134.63553726673126 99.87111628055573 132.07832992076874Q99.87111628055573 129.50960874557495 100.8939453959465 127.65082448720932Q101.91677451133728 125.79204022884369 103.80756914615631 124.78705495595932Q105.69836378097534 123.78206968307495 108.29336881637573 123.78206968307495Q110.11923968791962 123.78206968307495 111.73590362071991 124.4334128499031Q113.3525675535202 125.08475601673126 114.49574917554855 126.39322966337204Q115.6389307975769 127.70170331001282 116.00930094718933 129.67622935771942L111.21316611766815 130.6462824344635Q110.9411758184433 129.01934206485748 110.17852365970612 128.24357837438583Q109.41587150096893 127.46781468391418 108.27034115791321 127.46781468391418Q106.65190160274506 127.46781468391418 105.92174172401428 128.78710746765137Q105.19158184528351 130.10640025138855 105.19158184528351 132.1474128961563Q105.19158184528351 134.18004631996155 105.91598480939865 135.44595956802368Q106.6403877735138 136.71187281608582 108.28185498714447 136.71187281608582Q109.37819540500641 136.71187281608582 110.15079408884048 136.046002805233Q110.92339277267456 135.3801327943802 111.30214214324951 133.93216907978058L115.92243492603302 134.6928632259369Q115.6399554014206 136.2279361486435 114.88655507564545 137.3151159286499Q114.1331547498703 138.4022957086563 113.06634992361069 139.0787461400032Q111.99954509735107 139.7551965713501 110.7763397693634 140.07640719413757Q109.55313444137573 140.39761781692505 108.32791030406952 140.39761781692505Z" fill="#1b2b33"/><path d="M124.92670364379882 140.0 121.29208512306212 124.1796875H126.59374303817748L128.6773724079132 136.8184494972229H128.33840913772582L131.09821982383727 124.1796875H137.9697353363037L140.68764991760253 136.83201253414154H140.27544445991515L142.44593985080718 124.1796875H147.41369671821593L143.7560505390167 140.0H136.6491354227066L133.93742926120757 125.849609375H134.8259217262268L132.03361876010894 140.0Z M149.01404659748076 140.0V118.02734375H154.1461924791336V127.88887679576874L153.88565521240233 127.23283171653748Q154.63905553817747 125.55760443210602 155.9396014690399 124.66983705759048Q157.24014739990233 123.78206968307495 159.09103434085844 123.78206968307495Q160.9912328004837 123.78206968307495 162.15367357730864 124.65579211711884Q163.3161143541336 125.52951455116272 163.8486419200897 127.04620093107224Q164.38116948604582 128.56288731098175 164.38116948604582 130.48810184001923V140.0H159.26053743362425V131.12757086753845Q159.26053743362425 129.21284556388855 158.84004395008085 128.39789927005768Q158.41955046653746 127.5829529762268 157.20294873714445 127.5829529762268Q155.6242344856262 127.5829529762268 154.8852134823799 128.82170975208282Q154.1461924791336 130.06046652793884 154.1461924791336 132.54111468791962V140.0Z M173.94536475684188 140.39761781692505Q171.49018532327702 140.39761781692505 169.61649575555646 139.34195993829434Q167.74280618783587 138.28630205966363 166.69289393006142 136.4112174360818Q165.64298167228696 134.5361328125 165.64298167228696 132.08408683538437Q165.64298167228696 129.63204085826874 166.69268405200904 127.76063949995738Q167.74238643173112 125.88923814164602 169.6157014478505 124.83565391236048Q171.4890164639699 123.78206968307495 173.94370510578153 123.78206968307495Q176.41205801963804 123.78206968307495 178.28398420810697 124.83518987894058Q180.1559103965759 125.88831007480621 181.21168329715726 127.75860895915908Q182.26745619773862 129.62890784351194 182.26745619773862 132.0882772426216Q182.26745619773862 134.54764664173126 181.21400514669838 136.4190480000426Q180.16055409565814 138.29044935835398 178.28054914303246 139.3440335876395Q176.40054419040678 140.39761781692505 173.94536475684188 140.39761781692505ZM173.9566492243583 136.71187281608582Q175.3444065093994 136.71187281608582 176.14569857120512 135.46915745397786Q176.94699063301084 134.22644209186987 176.94699063301084 132.08984375Q176.94699063301084 129.95250046253204 176.14426828185964 128.7101575732231Q175.3415459307084 127.46781468391418 173.9537886456673 127.46781468391418Q172.5660313606262 127.46781468391418 171.76473929882047 128.7101575732231Q170.96344723701475 129.95250046253204 170.96344723701475 132.08984375Q170.96344723701475 134.23556625843048 171.76616958816595 135.47371953725815Q172.56889193931718 136.71187281608582 173.9566492243583 136.71187281608582Z M189.01128339767453 132.6448518037796 188.9935003519058 131.75780951976776Q188.9788519144058 130.62572062015533 189.3058194518089 129.95141059160233Q189.632786989212 129.27710056304932 190.1637776494026 128.8764089345932Q190.69476830959317 128.47571730613708 191.29900115728375 128.1859439611435Q191.90323400497434 127.8961706161499 192.43998157978055 127.56664156913757Q192.97672915458676 127.23711252212524 193.31991243362424 126.69361382722855Q193.66309571266171 126.15011513233185 193.66309571266171 125.21267592906952Q193.66309571266171 123.7846052646637 192.85387593507764 123.21503549814224Q192.04465615749356 122.64546573162079 190.96411037445066 122.64546573162079Q189.72327399253842 122.64546573162079 189.08094394206998 123.19999635219574Q188.43861389160153 123.75452697277069 188.19595086574552 124.57839518785477Q187.9532878398895 125.40226340293884 187.8936694860458 126.22335731983185L182.64023768901822 124.794921875Q182.8254835605621 123.53196084499359 183.5417504906654 122.39721924066544Q184.2580174207687 121.26247763633728 185.38025099039075 120.38881599903107Q186.5024845600128 119.51515436172485 187.9386045336723 119.0118932723999Q189.37472450733182 118.50863218307495 191.0258387327194 118.50863218307495Q192.43739414215085 118.50863218307495 193.86308568716046 118.90519499778748Q195.28877723217008 119.3017578125 196.4774714708328 120.10220766067505Q197.66616570949552 120.9026575088501 198.3860795497894 122.10018247365952Q199.10599339008328 123.29770743846893 199.10599339008328 124.89963173866272Q199.10599339008328 126.3958215713501 198.50854206085202 127.3045065999031Q197.91109073162076 128.21319162845612 197.01648104190824 128.7499088048935Q196.1218713521957 129.28662598133087 195.21418052911756 129.68261569738388Q194.3064897060394 130.0786054134369 193.66247075796124 130.52899926900864Q193.0184518098831 130.97939312458038 192.94309961795804 131.7462956905365L192.86147820949552 132.63333797454834Q191.96147191524503 132.3685199022293 190.95940846204755 132.37427681684494Q189.95734500885007 132.38003373146057 189.01128339767453 132.6448518037796ZM190.94632732868192 140.39761781692505Q189.42475664615628 140.39761781692505 188.5195969343185 139.49402540922165Q187.61443722248075 138.59043300151825 187.61443722248075 137.06572771072388Q187.61443722248075 135.54415702819824 188.5195969343185 134.63899731636047Q189.42475664615628 133.7338376045227 190.94632732868192 133.7338376045227Q192.46789801120755 133.7338376045227 193.37305772304532 134.63899731636047Q194.2782174348831 135.54415702819824 194.2782174348831 137.06572771072388Q194.2782174348831 138.59043300151825 193.37305772304532 139.49402540922165Q192.46789801120755 140.39761781692505 190.94632732868192 140.39761781692505Z" fill="#e8704a"/></svg>
